<?xml version="1.0" encoding="utf-8"?>
<!-- Generator: Adobe Illustrator 28.3.0, SVG Export Plug-In . SVG Version: 6.00 Build 0)  -->
<svg version="1.1" id="Calque_1" xmlns="http://www.w3.org/2000/svg" xmlns:xlink="http://www.w3.org/1999/xlink" x="0px" y="0px"
	 viewBox="0 0 800 800" style="enable-background:new 0 0 800 800;" xml:space="preserve">
<path d="M358.9,251.4c10-9.5,10.4-25.3,0.9-35.3c-9.5-10-25.3-10.4-35.3-0.9L358.9,251.4z M149.4,381.9c-10,9.5-10.4,25.3-0.9,35.3
	c9.5,10,25.3,10.4,35.3,0.9L149.4,381.9z M183.9,381.9c-10-9.5-25.8-9.1-35.3,0.9c-9.5,10-9.1,25.8,0.9,35.3L183.9,381.9z
	 M324.4,584.8c10,9.5,25.8,9.1,35.3-0.9c9.5-10,9.1-25.8-0.9-35.3L324.4,584.8z M166.7,375c-13.8,0-25,11.2-25,25s11.2,25,25,25V375
	z M633.3,425c13.8,0,25-11.2,25-25s-11.2-25-25-25V425z M324.4,215.2l-175,166.7l34.5,36.2l175-166.7L324.4,215.2z M149.4,418.1
	l175,166.7l34.5-36.2l-175-166.7L149.4,418.1z M166.7,425h466.7v-50H166.7V425z"/>
</svg>
