<?xml version="1.0" encoding="utf-8"?>
<!-- Generator: Adobe Illustrator 28.3.0, SVG Export Plug-In . SVG Version: 6.00 Build 0)  -->
<svg version="1.1" id="Calque_1" xmlns="http://www.w3.org/2000/svg" xmlns:xlink="http://www.w3.org/1999/xlink" x="0px" y="0px"
	 viewBox="0 0 2183 2500" style="enable-background:new 0 0 2183 2500;" xml:space="preserve">
<style type="text/css">
	.st0{fill:#DDD5C7;}
	.st1{fill:#F4E7CE;}
	.st2{fill:#FFFFFF;}
</style>
<path class="st0" d="M194.1,2227.5L13.3,17.5L2172.9,22l-191.2,2205.6l-880.5,254.9L194.1,2227.5z"/>
<path class="st1" d="M1101.2,2286.7l-799.5-198.1l840.6-919.4l848.2-920.6L1832,2074.7L1101.2,2286.7z"/>
<g>
	<path class="st2" d="M1086.3,455.1C680.6,455.1,705.9,631,705.9,631l0.5,182.3h387.1V868H552.6c0,0-259.6-29.4-259.6,379.9
		c0,409.4,226.6,394.8,226.6,394.8h135.2v-190c0,0-7.3-226.6,223-226.6h384c0,0,215.7,3.5,215.7-208.5V667.2
		C1477.5,667.2,1510.2,455.1,1086.3,455.1z M872.8,577.7c38.4,0,69.6,31.1,69.6,69.5v0.1c0,38.4-31.1,69.6-69.5,69.6h-0.1
		c-38.4,0-69.6-31.1-69.6-69.5v-0.1C803.2,608.9,834.3,577.7,872.8,577.7C872.7,577.7,872.7,577.7,872.8,577.7z"/>
	<path class="st2" d="M1097.8,2044.9c405.7,0,380.4-175.9,380.4-175.9l-0.5-182.3h-387.1V1632h540.9c0,0,259.6,29.4,259.6-379.9
		s-226.6-394.8-226.6-394.8h-135.2v189.9c0,0,7.3,226.6-223,226.6h-384c0,0-215.7-3.5-215.7,208.5v350.5
		C706.6,1832.8,673.8,2044.9,1097.8,2044.9L1097.8,2044.9z M1311.2,1922.3c-38.4,0-69.6-31.1-69.6-69.5v-0.1
		c0-38.4,31.1-69.6,69.5-69.7h0.1c38.4,0,69.6,31.1,69.6,69.5v0.1C1380.8,1891,1349.7,1922.2,1311.2,1922.3
		C1311.3,1922.3,1311.3,1922.3,1311.2,1922.3L1311.2,1922.3z"/>
</g>
</svg>
