<?xml version="1.0" encoding="utf-8"?>
<!-- Generator: Adobe Illustrator 28.3.0, SVG Export Plug-In . SVG Version: 6.00 Build 0)  -->
<svg version="1.1" id="Calque_1" xmlns="http://www.w3.org/2000/svg" xmlns:xlink="http://www.w3.org/1999/xlink" x="0px" y="0px"
	 viewBox="0 0 2183 2500" style="enable-background:new 0 0 2183 2500;" xml:space="preserve">
<style type="text/css">
	.st0{fill:url(#SVGID_1_);}
	.st1{fill:url(#SVGID_00000183221031020089858540000000444300711099979440_);}
	.st2{fill:#FFFFFF;}
</style>
<linearGradient id="SVGID_1_" gradientUnits="userSpaceOnUse" x1="13.2621" y1="1250" x2="2172.8928" y2="1250">
	<stop  offset="0" style="stop-color:#387EB8"/>
	<stop  offset="1" style="stop-color:#366994"/>
</linearGradient>
<path class="st0" d="M194.1,2227.5L13.3,17.5L2172.9,22l-191.2,2205.6l-880.5,254.9L194.1,2227.5z"/>
<linearGradient id="SVGID_00000155130451061371209410000016904071622463664005_" gradientUnits="userSpaceOnUse" x1="301.7341" y1="1267.6134" x2="1990.5781" y2="1267.6134">
	<stop  offset="0" style="stop-color:#FFE052"/>
	<stop  offset="1" style="stop-color:#FFC331"/>
</linearGradient>
<path style="fill:url(#SVGID_00000155130451061371209410000016904071622463664005_);" d="M1101.2,2286.7l-799.5-198.1l840.6-919.4
	l848.2-920.6L1832,2074.7L1101.2,2286.7z"/>
<g>
	<path class="st2" d="M1086.3,455.1c-405.7,0-380.4,175.9-380.4,175.9l0.5,182.3h387.1V868H552.6c0,0-259.6-29.4-259.6,379.9
		c0,409.4,226.6,394.8,226.6,394.8h135.2v-190c0,0-7.3-226.6,223-226.6h384c0,0,215.7,3.5,215.7-208.5V667.2
		C1477.5,667.2,1510.2,455.1,1086.3,455.1z M872.8,577.7c38.4,0,69.6,31.1,69.6,69.5c0,0,0,0.1,0,0.1c0,38.4-31.1,69.6-69.5,69.6
		c0,0-0.1,0-0.1,0c-38.4,0-69.6-31.1-69.6-69.5c0,0,0-0.1,0-0.1c0-38.4,31.1-69.6,69.5-69.6C872.7,577.7,872.7,577.7,872.8,577.7z"
		/>
	<path class="st2" d="M1097.8,2044.9c405.7,0,380.4-175.9,380.4-175.9l-0.5-182.3h-387.1V1632h540.9c0,0,259.6,29.4,259.6-379.9
		c0-409.3-226.6-394.8-226.6-394.8h-135.2v189.9c0,0,7.3,226.6-223,226.6h-384c0,0-215.7-3.5-215.7,208.5v350.5
		C706.6,1832.8,673.8,2044.9,1097.8,2044.9L1097.8,2044.9z M1311.2,1922.3c-38.4,0-69.6-31.1-69.6-69.5c0,0,0-0.1,0-0.1
		c0-38.4,31.1-69.6,69.5-69.7c0,0,0.1,0,0.1,0c38.4,0,69.6,31.1,69.6,69.5c0,0,0,0.1,0,0.1c0,38.4-31.1,69.6-69.5,69.6
		C1311.3,1922.3,1311.3,1922.3,1311.2,1922.3L1311.2,1922.3z"/>
</g>
</svg>
