<?xml version="1.0" encoding="utf-8"?>
<!-- Generator: Adobe Illustrator 28.3.0, SVG Export Plug-In . SVG Version: 6.00 Build 0)  -->
<svg version="1.1" id="Calque_1" xmlns="http://www.w3.org/2000/svg" xmlns:xlink="http://www.w3.org/1999/xlink" x="0px" y="0px"
	 viewBox="0 0 2183 2500" style="enable-background:new 0 0 2183 2500;" xml:space="preserve">
<style type="text/css">
	.st0{fill:#DDD5C7;}
	.st1{fill:#F4E7CE;}
	.st2{fill:#FFFFFF;}
</style>
<path class="st0" d="M194.1,2227.5L13.3,17.5L2172.9,22l-191.2,2205.6l-880.5,254.9L194.1,2227.5z"/>
<path class="st1" d="M271.4,2145.5L93.1,92.6l999.8-3.3v2294.5L271.4,2145.5z"/>
<g transform="translate(0.000000,270.000000) scale(0.100000,-0.100000)">
	<path class="st2" d="M4824.6-3238.9C3848-3446.6,3021.7-4281.8,2814-5267.2c-79.5-384.4-88.4-1471.5-13.3-1634.9
		c57.4-128.1,243-243,388.9-243c150.2,0,335.8,119.3,388.9,251.9c26.5,66.3,53,433,61.9,808.6c13.3,662.8,17.7,693.7,154.7,981
		c181.2,388.9,499.3,707,888.2,888.2c269.5,128.1,335.8,141.4,715.8,141.4s446.3-13.3,715.8-141.4
		c388.9-181.2,707-499.3,888.2-888.2l141.4-296.1l22.1-2496.6c13.3-1374.2,39.8-2532,61.9-2576.1c44.2-92.8,251.9-207.7,380-207.7
		c145.8,0,331.4,114.9,388.9,243c39.8,84,53,746.8,53,2514.3c0,2244.7-4.4,2421.5-88.4,2739.6c-128.1,499.3-322.6,839.6-707,1224
		C6605.3-3300.8,5730.4-3040.1,4824.6-3238.9z"/>
	<path class="st2" d="M11452.7-3238.9c-711.4-150.2-1458.2-720.3-1763.1-1352.1c-172.3-349.1-159.1-499.3,53-680.5
		c110.5-92.8,167.9-110.5,304.9-92.8c220.9,30.9,256.3,61.9,459.6,415.4c207.7,349.1,428.6,552.3,813.1,737.9
		c260.7,123.7,327,137,711.4,137c397.7,0,437.5-8.8,755.6-167.9c402.1-194.4,645.1-450.7,848.4-870.5l137-287.2l22.1-2496.6
		c13.3-1374.2,39.8-2532,61.9-2576.1c44.2-92.8,251.9-207.7,380-207.7c145.8,0,331.4,114.9,388.9,243c39.8,84,53,746.8,53,2514.3
		c0,2673.4-4.4,2739.6-313.7,3345c-181.2,362.3-711.4,897-1087,1091.4C12720.9-3194.8,12066.9-3106.4,11452.7-3238.9z"/>
	<path class="st2" d="M17122-3230.1c-455.1-150.2-777.7-433-981-866.1l-114.9-243l-13.3-1652.6
		c-13.3-1789.6-4.4-1855.9,216.5-1970.8c154.7-84,278.4-84,433-4.4c216.5,114.9,225.4,176.8,225.4,1847
		c0,1493.5,4.4,1555.4,92.8,1714.5c265.1,468.4,936.8,455.1,1162.1-22.1c66.3-141.4,75.1-455.1,70.7-3504.1
		c-4.4-1838.2,4.4-3380.4,22.1-3424.6c39.8-97.2,247.5-207.7,393.3-207.7c61.9,0,172.3,53,247.5,123.7
		c110.5,97.2,145.8,172.3,181.2,406.5c26.5,176.8,39.8,1524.5,30.9,3490.8l-13.3,3203.6l-114.9,247.5
		c-256.3,547.9-746.8,879.3-1334.5,905.8C17435.8-3172.7,17232.5-3194.8,17122-3230.1z"/>
	<path class="st2" d="M5182.5-5439.5c-225.4-123.7-220.9-101.6-220.9-2655.7c-4.4-2664.5,4.4-2757.3,287.2-3336.2
		c225.4-455.1,711.4-941.2,1166.6-1166.6c1060.5-517,2231.5-327,3049,499.3c384.4,384.4,578.9,724.7,707,1224
		c79.5,309.3,88.4,494.9,88.4,2081.2c0,1886.8-4.4,1931-243,2037.1c-61.9,30.9-154.7,53-203.3,53c-123.7,0-331.4-114.9-375.6-207.7
		c-22.1-44.2-48.6-905.8-61.9-1917.8l-22.1-1833.8l-167.9-335.8c-190-388.9-472.8-671.7-861.7-861.7
		c-225.4-110.5-296.1-123.7-715.8-123.7c-419.8,0-490.5,13.3-715.8,123.7c-388.9,190-671.7,472.8-861.7,861.7l-167.9,335.8
		l-22.1,2496.6c-13.3,1378.7-39.8,2536.4-61.9,2580.6c-48.6,97.2-256.3,207.7-388.9,207.7
		C5332.7-5382.1,5239.9-5408.6,5182.5-5439.5z"/>
	<path class="st2" d="M11810.6-5439.5c-225.4-123.7-220.9-101.6-220.9-2655.7c-4.4-2660.1,4.4-2735.2,287.2-3327.3
		c220.9-464,702.6-945.6,1166.6-1175.4c596.5-291.6,1219.6-362.3,1829.4-203.3c494.9,123.7,839.6,322.6,1224,707
		c534.7,525.8,742.4,1011.9,777.7,1820.5c26.5,587.7-13.3,751.2-212.1,852.8c-154.7,84-278.4,84-433,0
		c-172.3-88.4-216.5-238.6-234.2-777.7c-13.3-437.5-26.5-490.5-181.2-804.2c-190-384.4-472.8-667.2-861.7-857.2
		c-229.8-110.5-296.1-123.7-715.8-123.7c-419.8,4.4-490.5,13.3-729.1,132.6c-357.9,172.3-698.2,521.4-874.9,892.6l-141.4,300.5
		l-22.1,2496.6c-13.3,1374.2-39.8,2532-61.9,2576.1c-48.6,97.2-256.3,207.7-388.9,207.7
		C11960.9-5382.1,11868.1-5408.6,11810.6-5439.5z"/>
	<path class="st2" d="M2893.6-8625.4l-154.7-154.7l22.1-1157.7c22.1-1272.6,53-1462.6,309.3-2156.4
		c300.5-791,905.8-1612.9,1232.8-1665.9c145.8-22.1,185.6-4.4,327,137c220.9,220.9,194.4,357.9-154.7,799.8
		c-309.3,384.4-627.5,1011.9-737.9,1436.1c-57.4,216.5-79.5,556.8-92.8,1414c-8.8,662.8-35.4,1175.4-66.3,1250.5
		c-26.5,66.3-101.6,150.2-172.3,185.6C3202.9-8431,3065.9-8453.1,2893.6-8625.4z"/>
	<path class="st2" d="M10630.8-12527.2c-79.5-39.8-234.2-190-349.1-331.4c-309.3-380-742.4-715.8-1237.3-963.3
		c-565.6-278.4-852.8-349.1-1484.7-380c-397.7-17.7-592.1-8.8-883.8,57.4c-534.7,114.9-645.1,106.1-799.8-61.9
		c-66.3-79.5-123.7-194.4-123.7-256.3c0-167.9,123.7-371.2,256.3-419.8c291.6-114.9,936.8-216.5,1378.7-216.5
		c1228.4,4.4,2311,441.9,3208,1294.7l327,309.3l327-309.3c835.1-799.8,1833.8-1228.4,2969.4-1281.4
		c636.3-30.9,1122.4,30.9,1661.5,207.7c751.2,251.9,1268.2,570,1833.8,1126.8c433,428.6,530.3,614.2,437.5,835.1
		c-88.4,207.7-251.9,309.3-455.1,278.4c-123.7-22.1-229.8-101.6-494.9-375.6c-534.7-547.9-1148.9-914.7-1838.2-1095.9
		c-428.6-110.5-1383.1-110.5-1811.7,0c-764.4,198.8-1528.9,684.9-1975.2,1250.5C11271.6-12474.2,10940.1-12354.9,10630.8-12527.2z"
		/>
</g>
</svg>
