<?xml version="1.0" encoding="UTF-8"?>
<svg id="Calque_1" data-name="Calque 1" xmlns="http://www.w3.org/2000/svg" viewBox="0 0 150 150">
  <defs>
    <style>
      .cls-1 {
        fill: #3a3335;
      }

      .cls-1, .cls-2 {
        stroke-width: 0px;
      }

      .cls-2 {
        fill: #f7efe0;
      }
    </style>
  </defs>
  <rect class="cls-2" width="150" height="150"/>
  <g>
    <path class="cls-1" d="M94.95,43.72l-26.63,74.48h-.43l-15.55-45.52h-.43l-15.55,45.52h-.43L9.3,43.72l-6.18-3.63v-.43h20.67l15.34,44.14h.43l15.87-46.27h.43l15.66,46.27h.43l10.87-30.35c.35-1.14.6-2.17.75-3.1.14-.92.21-1.78.21-2.56,0-2.63-.69-4.52-2.08-5.66-1.38-1.14-3.14-1.82-5.27-2.03v-.43h24.72v.43l-6.18,3.63Z"/>
    <path class="cls-1" d="M113.77,85.35l-7.29-14.62-14.57-7.31,14.57-7.31,7.29-14.62,7.29,14.62,14.57,7.31-14.57,7.31-7.29,14.62ZM101.95,63.42l7.88,3.95,3.94,7.9,3.94-7.9,7.88-3.95-7.88-3.95-3.94-7.9-3.94,7.9-7.88,3.95ZM127.24,84.82l3.37,6.76,3.37-6.76,6.74-3.38-6.74-3.38-3.37-6.76-3.37,6.76-6.74,3.38,6.74,3.38ZM125.74,48.03l2.62,5.25,2.62-5.25,5.24-2.63-5.24-2.63-2.62-5.25-2.62,5.25-5.24,2.63,5.24,2.63Z"/>
  </g>
</svg>