<?xml version="1.0" encoding="utf-8"?>
<!-- Generator: Adobe Illustrator 28.3.0, SVG Export Plug-In . SVG Version: 6.00 Build 0)  -->
<svg version="1.1" id="Calque_1" xmlns="http://www.w3.org/2000/svg" xmlns:xlink="http://www.w3.org/1999/xlink" x="0px" y="0px"
	 viewBox="0 0 698 147" style="enable-background:new 0 0 698 147;" xml:space="preserve">
<style type="text/css">
	.st0{fill:#F7EFE0;}
</style>
<g>
	<path class="st0" d="M117.4,52.4l-34.1,95h-0.5L62.9,89.4h-0.5l-19.9,58.1h-0.5l-34.1-95l-7.9-4.6v-0.5h26.4L46,103.5h0.5l20.3-59
		h0.5l20,59h0.5l13.9-38.7c0.5-1.5,0.8-2.8,1-4c0.2-1.2,0.3-2.3,0.3-3.3c0-3.4-0.9-5.8-2.7-7.2c-1.8-1.5-4-2.3-6.7-2.6v-0.5h31.6
		v0.5L117.4,52.4z"/>
	<path class="st0" d="M121.9,142.7v-0.5l7.5-4.6V91.5c0-3-0.1-5.5-0.3-7.4c-0.2-1.9-0.6-3.5-1.2-4.6c-0.5-1.2-1.3-2.1-2.2-2.7
		c-1-0.6-2.2-1.2-3.7-1.8v-0.5h27.3v52.1c0,2.7,0.1,5,0.3,6.7c0.2,1.7,0.6,3.2,1.2,4.4c0.5,1.2,1.3,2.1,2.2,2.7
		c1,0.6,2.2,1.2,3.7,1.8v0.5H121.9z M139.1,68c-0.5-1-1.2-2.2-2.2-3.5c-1-1.3-2.2-2.6-3.5-3.9c-1.3-1.3-2.6-2.4-3.9-3.4
		c-1.3-1-2.4-1.7-3.4-2v-0.5l13.1-12.8h0.5l13.1,12.8v0.5c-0.9,0.4-2,1-3.3,2c-1.3,1-2.6,2.1-4,3.4c-1.3,1.3-2.5,2.6-3.5,3.9
		c-1,1.3-1.8,2.5-2.2,3.5H139.1z"/>
	<path class="st0" d="M162.8,142.7v-0.5l7.5-4.6V58.8c0-3-0.2-5.4-0.6-7.3c-0.4-1.9-1.1-3.4-2-4.6c-0.9-1.2-2-2.1-3.4-2.8
		s-3-1.3-4.8-1.8v-0.5H190v83.8c0,2.9,0.1,5.3,0.3,7.2c0.2,1.9,0.6,3.4,1.2,4.6c0.5,1.2,1.3,2.2,2.2,2.9c1,0.7,2.2,1.3,3.7,1.8v0.5
		H162.8z"/>
	<path class="st0" d="M268.6,145.4l-19.2-10.1c-2.1,2.5-4.6,4.5-7.6,6.2c-3,1.7-6.3,2.5-10.2,2.5c-8.5,0-15.3-2.8-20.4-8.5
		c-5-5.7-7.6-14.2-7.6-25.6c0-5.6,0.8-10.7,2.4-15.3c1.6-4.5,3.8-8.4,6.6-11.6c2.8-3.2,6.2-5.6,10.1-7.4c3.9-1.7,8.1-2.6,12.7-2.6
		c2.8,0,5.4,0.4,7.7,1.1c2.3,0.7,4.4,1.7,6.2,3V58.8c0-3-0.2-5.4-0.6-7.3c-0.4-1.9-1.1-3.4-2-4.6c-0.9-1.2-2-2.1-3.4-2.8
		c-1.4-0.7-3-1.3-4.8-1.8v-0.5h30.5v103.6H268.6z M235.4,135.8c2.6,0,5.2-1,7.7-2.9c2.5-1.9,4.6-4.1,6.2-6.7V84.9
		c-1.5-1.3-3.2-2.3-5-3.1c-1.8-0.8-3.6-1.2-5.5-1.2c-2.9,0-5.3,0.7-7.1,2c-1.8,1.3-3.2,3.2-4.3,5.7c-1,2.5-1.8,5.6-2.1,9.2
		c-0.4,3.6-0.5,7.8-0.5,12.4c0,5.2,0.2,9.5,0.7,12.8c0.5,3.4,1.1,6,2,7.9c0.9,1.9,2,3.3,3.3,4C232.2,135.5,233.7,135.8,235.4,135.8z
		"/>
	<path class="st0" d="M327.6,144c-6.1,0-11.7-1-16.8-3.1c-5.1-2-9.6-5.1-13.3-9.2c-3.7-4.1-6.7-9.2-8.8-15.3
		c-2.1-6.1-3.2-13.3-3.2-21.5c0-7.5,1.1-14.2,3.3-20.2c2.2-6,5.2-11.2,9-15.5c3.8-4.3,8.3-7.6,13.4-9.9c5.1-2.3,10.7-3.5,16.6-3.5
		c5.5,0,10.5,0.7,14.9,2c4.4,1.4,8.4,3.1,11.9,5.2l-3.3,26.2h-0.5c-0.9-2.8-2-5.7-3.1-8.6c-1.2-2.9-2.6-5.5-4.3-7.9
		c-1.7-2.4-3.6-4.3-5.9-5.8c-2.2-1.5-4.8-2.2-7.8-2.2c-7.3,0-12.7,3.3-16.3,9.9c-3.6,6.6-5.4,16.2-5.4,29c0,14.4,1.9,24.9,5.6,31.6
		c3.7,6.7,9,10,15.9,10c3,0,5.6-0.7,7.9-2c2.3-1.4,4.3-3.2,6-5.5c1.7-2.3,3.2-5,4.5-7.9c1.3-3,2.5-6,3.5-9.1h0.5l3.3,25.5
		c-3.8,2.4-7.9,4.3-12.3,5.7C338.5,143.3,333.4,144,327.6,144z"/>
	<path class="st0" d="M401,142.7v-7.5c-2,2.3-4.5,4.3-7.5,6.1s-6.7,2.7-11,2.7c-2.6,0-5.1-0.4-7.4-1.1c-2.3-0.7-4.3-1.8-6.1-3.3
		c-1.7-1.5-3.1-3.3-4.1-5.6c-1-2.3-1.5-4.9-1.5-7.9c0-4.3,1-7.9,2.9-10.9c2-3,4.6-5.5,8-7.4c3.4-1.9,7.4-3.3,12-4.3
		c4.6-1,9.5-1.4,14.7-1.4v-4.5c0-6-0.7-10.3-2-13c-1.4-2.7-3.8-4-7.2-4c-2.8,0-5.1,1-6.7,2.9c-1.7,1.9-2.5,4.5-2.5,7.6
		c0,1.1,0.1,2.2,0.3,3.5c0.2,1.2,0.4,2.2,0.7,2.9l-0.4,0.4L365.3,87c2.6-4,6.3-7.3,10.9-10c4.6-2.6,10.3-4,17-4
		c4.4,0,8.2,0.4,11.7,1.2s6.3,2.2,8.7,4.1c2.4,1.9,4.2,4.5,5.4,7.6c1.2,3.2,1.8,7.2,1.8,12v39.4l7.5,4.6v0.5H401z M389.7,133.1
		c2.3,0,4.4-0.7,6.3-2c2-1.4,3.6-3,5-4.8v-16.6c-6,0.2-10.6,1.3-13.8,3.5c-3.2,2.1-4.8,6-4.8,11.7c0,3.3,0.8,5.5,2.5,6.6
		C386.6,132.6,388.2,133.1,389.7,133.1z"/>
	<path class="st0" d="M485.6,98.6H485c-1.4-3.4-3.1-6-5.3-7.8c-2.2-1.8-4.6-2.7-7.4-2.7c-4.8,0-8.8,2.1-12,6.3v29.9
		c0,3.4,0.3,6.1,0.8,8.1c0.5,2,1.3,3.7,2.3,5c1,1.3,2.2,2.2,3.7,2.9c1.5,0.7,3,1.3,4.8,1.8v0.5h-38.8v-0.5l7.5-4.6V91.5
		c0-2.7-0.1-5-0.2-6.9c-0.1-1.9-0.5-3.4-1-4.6c-0.5-1.2-1.2-2.2-2.2-3c-1-0.8-2.4-1.4-4.1-2v-0.5h27.3v11.3
		c2.6-3.8,6.1-6.9,10.4-9.2c4.3-2.3,9.7-3.5,16.2-3.5L485.6,98.6z"/>
	<path class="st0" d="M553.9,145.4l-19.2-10.1c-2.1,2.5-4.6,4.5-7.6,6.2c-3,1.7-6.3,2.5-10.2,2.5c-8.5,0-15.3-2.8-20.4-8.5
		c-5-5.7-7.6-14.2-7.6-25.6c0-5.6,0.8-10.7,2.4-15.3c1.6-4.5,3.8-8.4,6.6-11.6c2.8-3.2,6.2-5.6,10.1-7.4c3.9-1.7,8.1-2.6,12.7-2.6
		c2.8,0,5.4,0.4,7.7,1.1c2.3,0.7,4.4,1.7,6.2,3V58.8c0-3-0.2-5.4-0.6-7.3c-0.4-1.9-1.1-3.4-2-4.6c-0.9-1.2-2-2.1-3.4-2.8
		c-1.4-0.7-3-1.3-4.8-1.8v-0.5h30.5v103.6H553.9z M520.7,135.8c2.6,0,5.2-1,7.7-2.9c2.5-1.9,4.6-4.1,6.2-6.7V84.9
		c-1.5-1.3-3.2-2.3-5-3.1c-1.8-0.8-3.6-1.2-5.5-1.2c-2.9,0-5.3,0.7-7.1,2c-1.8,1.3-3.2,3.2-4.3,5.7c-1,2.5-1.8,5.6-2.1,9.2
		c-0.4,3.6-0.5,7.8-0.5,12.4c0,5.2,0.2,9.5,0.7,12.8c0.5,3.4,1.1,6,2,7.9c0.9,1.9,2,3.3,3.3,4C517.5,135.5,519,135.8,520.7,135.8z"
		/>
	<path class="st0" d="M596.9,144c-4.5,0-9.1-0.5-13.7-1.4c-4.6-1-9-2.4-13.2-4.4l1.9-24.8h0.5c1,2.8,2.2,5.6,3.6,8.2
		c1.4,2.7,3.1,5.1,5,7.2c2,2.1,4.2,3.8,6.8,5.1c2.6,1.3,5.6,2,8.9,2c4.1,0,7.4-1.1,10-3.4c2.6-2.3,3.9-5.5,3.9-9.7
		c0-3.8-1-7-3.1-9.7c-2-2.6-4.6-5-7.7-7.1c-3.1-2.1-6.4-4.1-10-6c-3.5-1.9-6.9-4.1-10-6.5c-3.1-2.5-5.7-5.3-7.7-8.6
		s-3.1-7.3-3.1-12.1c0-4.4,0.8-8.2,2.3-11.5c1.5-3.3,3.7-6.1,6.4-8.4c2.7-2.3,5.9-4,9.5-5.2c3.6-1.2,7.5-1.8,11.7-1.8
		c4.7,0,9.2,0.6,13.6,1.8c4.3,1.2,7.9,2.6,10.8,4l-1.9,24.1h-0.5c-1-3.2-2.1-6.1-3.4-8.7c-1.3-2.6-2.8-4.9-4.5-6.9
		c-1.7-2-3.7-3.5-6.1-4.6c-2.3-1.1-5-1.6-8-1.6c-3.5,0-6.4,1.1-8.7,3.3c-2.4,2.2-3.5,5.1-3.5,8.5c0,3.4,1.1,6.2,3.2,8.7
		c2.1,2.4,4.8,4.6,7.9,6.7c3.1,2,6.6,4,10.3,6c3.7,2,7.2,4.2,10.3,6.8c3.1,2.6,5.8,5.6,7.9,9.1c2.1,3.5,3.2,7.8,3.2,12.9
		c0,4.5-0.9,8.5-2.7,12c-1.8,3.5-4.2,6.4-7.2,8.7c-3,2.4-6.5,4.2-10.5,5.4C605.6,143.4,601.4,144,596.9,144z"/>
</g>
<path class="st0" d="M657.8,64.1l-9.3-18.6l-18.6-9.3l18.6-9.3l9.3-18.6l9.3,18.6l18.6,9.3l-18.6,9.3L657.8,64.1z M642.7,36.1
	l10.1,5l5,10.1l5-10.1l10.1-5l-10.1-5l-5-10.1l-5,10.1L642.7,36.1z M680.8,63.4l4.3,8.6l4.3-8.6l8.6-4.3l-8.6-4.3l-4.3-8.6l-4.3,8.6
	l-8.6,4.3L680.8,63.4z M684.6,16.5l3.4,6.7l3.4-6.7l6.7-3.4l-6.7-3.4l-3.4-6.7l-3.4,6.7l-6.7,3.4L684.6,16.5z"/>
<path class="st0" d="M350,96.1l-10,5l-5,10.1l-5-10.1l-10-5l10-5l5-10.1l5,10.1L350,96.1z"/>
</svg>
