<?xml version="1.0" encoding="utf-8"?>
<!-- Generator: Adobe Illustrator 28.3.0, SVG Export Plug-In . SVG Version: 6.00 Build 0)  -->
<svg version="1.1" id="Capa_1" xmlns="http://www.w3.org/2000/svg" xmlns:xlink="http://www.w3.org/1999/xlink" x="0px" y="0px"
	 viewBox="0 0 800 800" style="enable-background:new 0 0 800 800;" xml:space="preserve">
<style type="text/css">
	.st0{fill:#F7EFE0;}
</style>
<g>
	<path class="st0" d="M0,332.9c0,183.6,149.4,332.8,332.8,332.8c84.5,0,161.8-31.8,220.6-83.9L765.6,794c3.9,3.9,9,5.9,14.3,5.9
		s10.3-2,14.3-5.9c7.9-7.9,7.9-20.5,0-28.3L581.8,553.6c52.1-58.8,83.9-136,83.9-220.6c0-183.6-149.4-332.8-332.8-332.8
		S0,149.3,0,332.9z M625.6,332.9c0,161.3-131.4,292.7-292.7,292.7S40.1,494.3,40.1,332.9S171.5,40.2,332.8,40.2
		S625.6,171.4,625.6,332.9z"/>
</g>
</svg>
