<?xml version="1.0" encoding="utf-8"?>
<!-- Generator: Adobe Illustrator 28.3.0, SVG Export Plug-In . SVG Version: 6.00 Build 0)  -->
<svg version="1.1" id="Layer_1" xmlns="http://www.w3.org/2000/svg" xmlns:xlink="http://www.w3.org/1999/xlink" x="0px" y="0px"
	 viewBox="0 0 512 512" style="enable-background:new 0 0 512 512;" xml:space="preserve">
<style type="text/css">
	.st0{fill:#3A3335;}
</style>
<path class="st0" d="M213.3,453l-69.2-138.5L5.6,245.3l138.5-69.2l69.2-138.5l69.2,138.5L421,245.3l-138.5,69.2L213.3,453z
	 M101,245.3l74.9,37.4l37.4,74.9l37.4-74.9l74.9-37.4l-74.9-37.4L213.3,133l-37.4,74.9L101,245.3z M384,448l32,64l32-64l64-32
	l-64-32l-32-64l-32,64l-64,32L384,448z M412.4,99.6l24.9,49.8l24.9-49.8L512,74.7l-49.8-24.9L437.3,0l-24.9,49.8l-49.8,24.9
	L412.4,99.6z"/>
</svg>
